<?xml version="1.0" standalone="no"?>
<!DOCTYPE svg PUBLIC "-//W3C//DTD SVG 20010904//EN"
 "http://www.w3.org/TR/2001/REC-SVG-20010904/DTD/svg10.dtd">
<svg version="1.0" xmlns="http://www.w3.org/2000/svg"
 width="556.000000pt" height="424.000000pt" viewBox="0 0 556.000000 424.000000"
 preserveAspectRatio="xMidYMid meet">
<metadata>
Created by potrace 1.15, written by Peter Selinger 2001-2017
</metadata>
<g transform="translate(0.000000,424.000000) scale(0.100000,-0.100000)"
fill="#000000" stroke="none">
<path d="M4746 3675 c-21 -6 -51 -23 -66 -38 -15 -15 -32 -27 -37 -27 -6 0
-13 -5 -15 -11 -2 -5 -24 -13 -48 -16 -25 -3 -57 -12 -72 -19 -15 -8 -38 -14
-52 -14 -14 0 -27 -4 -30 -9 -3 -5 -16 -9 -28 -9 -13 0 -52 -6 -88 -12 -94
-17 -194 -29 -203 -23 -4 3 -14 0 -22 -7 -7 -6 -44 -14 -82 -16 -37 -3 -70 -9
-73 -13 -7 -11 -117 -29 -224 -37 -76 -5 -89 -9 -94 -26 -2 -10 -10 -17 -17
-14 -7 2 -34 -2 -60 -10 -26 -7 -64 -13 -84 -12 -49 2 -80 -10 -108 -40 -15
-16 -37 -27 -60 -29 -20 -2 -43 -8 -52 -12 -9 -5 -38 -13 -66 -17 -56 -9 -54
-9 -75 -16 -35 -14 -107 -28 -135 -27 -37 1 -188 -18 -235 -31 -61 -15 -122
-40 -137 -55 -8 -8 -24 -15 -37 -15 -12 0 -26 -4 -32 -8 -5 -5 -27 -14 -49
-20 -23 -6 -50 -20 -61 -31 -11 -10 -30 -22 -42 -25 -12 -4 -22 -11 -22 -16 0
-5 -13 -11 -29 -15 -16 -3 -35 -13 -42 -21 -6 -8 -18 -14 -25 -14 -8 0 -14 -4
-14 -10 0 -5 -6 -10 -13 -10 -24 0 -81 -33 -100 -57 -10 -13 -25 -23 -33 -23
-8 0 -14 -4 -14 -9 0 -5 -18 -11 -40 -15 -26 -4 -40 -11 -40 -21 0 -8 -8 -15
-19 -15 -10 0 -25 -9 -32 -21 -12 -17 -29 -25 -63 -28 -4 -1 -5 -13 -1 -28 5
-22 4 -24 -8 -15 -17 15 -38 -3 -30 -27 4 -12 3 -13 -5 -2 -7 9 -12 10 -16 2
-4 -6 -16 -11 -27 -11 -12 0 -19 -7 -19 -19 0 -11 -12 -26 -27 -33 -50 -25
-73 -43 -73 -54 0 -7 -7 -14 -15 -18 -8 -3 -15 -12 -15 -20 0 -7 -11 -17 -25
-20 -14 -4 -25 -11 -25 -16 0 -26 -92 -43 -127 -25 -25 13 -28 13 -45 -13 -10
-15 -18 -36 -18 -48 0 -11 -11 -31 -25 -44 -14 -13 -25 -31 -25 -41 0 -9 -6
-19 -12 -22 -8 -2 -13 -22 -13 -53 0 -40 -3 -49 -17 -48 -12 1 -18 -9 -23 -37
-4 -21 -12 -37 -18 -36 -6 1 -11 -13 -13 -31 -1 -17 -14 -48 -28 -67 -22 -28
-26 -41 -20 -70 3 -19 3 -43 -2 -52 -12 -30 -11 -76 3 -106 8 -15 12 -31 9
-36 -3 -4 2 -27 11 -50 17 -44 13 -61 -11 -41 -18 14 -32 3 -56 -44 -8 -16
-23 -31 -32 -34 -10 -2 -18 -8 -18 -13 0 -5 -8 -9 -18 -9 -10 0 -29 -11 -42
-25 -16 -17 -34 -25 -57 -25 -36 0 -65 -20 -61 -41 5 -21 -19 -20 -25 1 -5 20
-8 20 -59 -16 -29 -20 -56 -43 -60 -49 -4 -7 -19 -16 -33 -19 -14 -4 -27 -16
-30 -29 -4 -13 -16 -27 -28 -32 -12 -6 -26 -25 -32 -42 -5 -18 -15 -33 -22
-33 -23 0 -61 -46 -68 -83 -4 -20 -12 -37 -17 -37 -6 0 -8 -9 -5 -20 3 -11 1
-20 -3 -20 -12 0 -24 -40 -21 -74 1 -16 -8 -44 -19 -64 -18 -29 -19 -40 -10
-66 7 -20 7 -32 1 -34 -5 -2 -15 -20 -22 -40 -7 -20 -20 -42 -29 -49 -10 -7
-20 -26 -23 -42 -4 -18 -17 -36 -34 -46 -36 -21 -70 -81 -68 -119 2 -28 8 -39
68 -111 36 -43 119 -85 170 -85 30 0 46 7 69 30 34 35 48 38 48 11 0 -17 20
-33 43 -35 5 -1 14 -9 21 -18 12 -16 15 -15 39 10 17 19 26 39 27 67 3 61 2
65 -23 74 -17 7 -26 22 -35 59 -12 52 -7 84 22 140 9 17 16 40 16 52 0 11 5
20 10 20 6 0 10 7 10 16 0 9 6 30 14 47 8 18 17 39 20 47 3 8 17 33 31 55 14
22 37 65 52 95 14 30 29 57 32 60 3 3 19 24 35 48 16 24 34 46 41 50 6 4 20
20 32 35 30 38 177 127 193 117 8 -5 23 -3 34 5 12 7 47 16 78 20 49 5 62 3
87 -14 16 -12 32 -21 35 -21 3 0 18 -13 33 -28 43 -44 105 -82 133 -82 14 0
34 -6 45 -13 19 -13 66 -14 150 -4 22 3 60 7 85 9 25 2 48 7 52 13 4 6 12 3
20 -7 31 -41 76 -40 119 3 11 11 23 19 29 19 5 0 32 13 60 30 28 16 60 30 70
30 11 0 20 5 20 10 0 6 10 10 22 10 12 0 18 3 15 7 -4 3 1 16 12 27 10 12 21
30 23 41 2 13 10 19 24 17 11 -1 29 8 42 23 12 14 30 25 40 25 11 0 27 9 37
20 10 11 23 20 28 20 6 0 27 17 47 37 20 21 45 43 55 49 11 6 27 25 36 42 9
17 19 29 23 25 3 -3 6 2 6 11 0 23 30 74 46 78 6 2 27 23 46 48 19 25 43 46
55 48 11 2 25 14 32 28 7 16 18 24 29 22 19 -4 57 31 67 62 3 11 13 20 21 20
8 0 14 8 14 19 0 23 25 45 40 36 13 -8 39 23 40 48 0 9 5 17 10 17 6 0 15 11
20 24 5 14 22 33 37 42 15 10 43 34 62 53 19 20 37 35 40 34 15 -7 40 10 45
30 7 26 67 69 118 86 20 7 42 19 49 27 15 18 74 44 100 44 10 0 22 6 26 14 4
8 24 16 43 18 29 2 35 7 33 25 -2 20 1 22 25 17 22 -5 37 2 71 30 24 20 47 36
53 36 5 0 23 14 39 31 17 18 29 26 30 18 1 -8 4 -3 8 11 5 17 14 25 28 25 12
0 31 10 42 22 11 12 29 24 41 28 11 3 20 13 20 21 0 8 5 14 10 14 6 0 10 7 10
15 0 10 10 15 34 15 18 0 39 7 46 15 7 8 18 15 24 15 6 0 34 21 61 45 28 25
62 52 78 61 15 8 27 23 27 34 0 13 7 20 20 20 11 0 20 5 20 11 0 5 4 7 10 4 5
-3 36 3 67 14 32 11 70 22 85 25 15 3 30 15 33 26 4 13 15 20 31 20 15 0 24 6
24 15 0 11 11 15 40 15 29 0 40 4 40 15 0 9 9 15 24 15 13 0 29 7 36 15 7 8
20 15 29 15 26 0 122 37 141 55 10 9 34 20 54 26 33 9 86 53 86 71 0 5 9 8 20
8 12 0 32 7 45 16 14 9 31 14 39 11 9 -4 13 -1 11 6 -3 7 11 22 30 35 27 17
35 29 35 52 0 16 -5 32 -11 35 -6 4 -14 16 -18 27 -7 21 -109 69 -151 72 -84
6 -176 31 -187 51 -5 7 -30 22 -58 33 -42 16 -56 17 -89 7z m134 -200 c23 0
23 -32 0 -71 -28 -45 -61 -66 -97 -63 -15 2 -34 0 -40 -4 -7 -5 -23 -10 -35
-12 -13 -3 -28 -12 -34 -20 -6 -8 -19 -15 -29 -15 -19 0 -166 -66 -175 -79
-11 -15 -60 -41 -77 -41 -10 0 -33 -9 -51 -20 -18 -11 -39 -20 -48 -20 -27 0
-96 -41 -101 -61 -3 -10 -9 -19 -13 -19 -6 0 -50 -32 -101 -74 -9 -7 -27 -16
-40 -19 -37 -9 -139 -86 -139 -104 0 -10 -6 -13 -16 -9 -9 3 -24 -4 -38 -19
-13 -14 -28 -25 -33 -25 -5 0 -20 -11 -33 -25 -13 -14 -30 -25 -37 -25 -7 0
-18 -12 -23 -26 -6 -14 -15 -22 -20 -19 -6 4 -25 -9 -42 -29 -24 -27 -41 -37
-77 -42 -25 -4 -52 -11 -58 -16 -7 -6 -13 -7 -13 -3 0 4 -16 -2 -36 -14 -19
-12 -41 -21 -48 -21 -7 0 -21 -9 -31 -20 -10 -12 -25 -18 -32 -16 -7 3 -13 0
-13 -7 0 -7 -22 -21 -49 -31 -27 -9 -57 -26 -67 -37 -9 -10 -22 -19 -29 -19
-6 0 -18 -12 -26 -27 -8 -16 -20 -34 -26 -41 -7 -7 -13 -23 -13 -34 0 -17 -3
-18 -15 -8 -12 10 -20 7 -44 -19 -16 -17 -31 -31 -33 -31 -13 0 -103 -97 -132
-143 -19 -29 -50 -64 -70 -78 -20 -13 -36 -27 -36 -30 0 -4 -23 -24 -50 -45
-28 -21 -48 -44 -46 -51 5 -12 -73 -93 -97 -102 -15 -6 -46 -43 -47 -57 0 -16
-98 -89 -136 -102 -32 -10 -97 1 -141 26 -13 7 -40 13 -60 14 -21 0 -43 5 -50
10 -7 5 -14 5 -18 -2 -9 -15 -35 -12 -35 5 0 8 6 15 14 15 8 0 22 19 32 43 10
23 20 45 22 49 2 4 -8 13 -22 19 -14 7 -26 18 -26 25 0 6 -6 14 -12 16 -29 10
-140 8 -178 -2 -38 -10 -44 -9 -57 9 -8 12 -22 21 -31 21 -25 0 -49 18 -37 28
21 15 45 62 51 102 6 37 4 45 -19 66 -20 18 -37 24 -72 24 -25 0 -45 4 -45 9
0 5 -9 7 -20 4 -11 -3 -18 -9 -15 -13 3 -5 1 -11 -5 -15 -5 -3 -10 -1 -10 4 0
6 -10 11 -22 11 -13 0 -31 7 -40 14 -19 14 -24 36 -9 36 5 0 12 12 15 26 5 19
2 30 -11 39 -17 13 -17 14 0 20 23 10 22 25 -3 25 -24 0 -26 22 -5 40 8 7 15
19 15 26 0 8 4 14 10 14 5 0 31 23 58 50 27 28 54 50 60 50 6 0 21 13 33 30
12 16 36 36 53 45 42 21 73 42 139 93 31 23 59 42 62 42 3 0 15 9 27 20 12 11
30 20 40 20 10 0 18 3 18 8 0 8 8 13 93 54 30 15 58 32 62 37 3 6 17 11 30 11
13 0 26 4 29 9 6 9 168 91 189 95 15 4 46 15 120 45 15 6 39 11 52 11 13 0 31
7 40 16 10 10 25 14 43 11 15 -3 54 1 87 8 33 8 85 16 115 18 30 2 65 9 77 15
12 7 42 12 66 12 32 0 47 5 51 16 4 10 13 13 25 9 10 -3 23 1 30 9 8 10 23 13
47 9 20 -3 34 -1 34 5 0 5 12 12 28 15 63 13 188 49 198 58 6 5 46 20 88 34
43 14 91 32 107 41 17 8 39 12 50 9 11 -4 26 -1 34 5 11 9 19 9 28 2 19 -16
260 8 272 28 2 4 15 5 29 3 13 -3 33 0 44 6 11 6 46 11 78 12 33 1 65 6 72 12
8 6 17 6 26 -2 12 -10 13 -8 9 9 -5 19 -2 20 21 14 17 -4 33 -1 44 7 38 31 65
39 126 39 36 0 68 5 72 11 3 6 17 9 30 6 13 -2 25 1 27 7 3 8 11 7 30 -1 17
-8 28 -9 32 -2 4 5 11 7 16 3 6 -3 19 3 30 15 12 12 25 18 32 14 7 -4 19 -8
27 -8z m-3407 -1380 c6 -14 68 -45 92 -45 30 0 84 -30 79 -44 -3 -8 -12 -12
-20 -9 -10 4 -14 -3 -14 -26 0 -25 12 -43 56 -86 30 -30 60 -55 66 -55 5 0 29
-13 53 -29 27 -18 47 -26 56 -21 7 5 21 4 31 -1 10 -6 23 -7 29 -3 14 8 46
-22 53 -52 4 -13 12 -24 18 -24 6 0 18 -7 27 -15 41 -39 127 -95 139 -90 7 3
31 -4 53 -15 21 -11 39 -18 39 -15 0 4 4 3 10 0 12 -7 -41 -61 -69 -70 -12 -3
-21 -11 -21 -16 0 -5 -7 -9 -16 -9 -9 0 -28 -8 -42 -18 -36 -24 -91 -46 -99
-39 -3 3 -23 -3 -44 -14 -22 -11 -39 -17 -39 -13 0 4 -7 1 -15 -6 -8 -6 -19
-9 -25 -5 -6 4 -20 -1 -30 -10 -27 -24 -152 -12 -195 19 -16 12 -42 27 -56 34
-36 19 -62 65 -46 81 9 10 5 11 -23 6 -19 -3 -48 -6 -65 -6 -16 0 -39 1 -50 1
-36 0 -130 -11 -145 -17 -8 -3 -32 -7 -53 -9 l-39 -2 21 22 c12 12 21 30 21
39 0 9 4 17 9 17 5 0 18 21 29 48 12 26 21 42 22 35 0 -8 8 -7 29 3 24 12 30
23 36 67 4 28 7 65 6 80 -3 35 16 59 40 52 15 -5 19 -1 19 15 0 16 -5 20 -15
16 -9 -3 -15 0 -15 10 0 22 39 174 53 207 13 29 41 36 50 12z m-196 -437 c-3
-8 -6 -5 -6 6 -1 11 2 17 5 13 3 -3 4 -12 1 -19z m-191 -255 c-10 -10 -19 5
-10 18 6 11 8 11 12 0 2 -7 1 -15 -2 -18z m-86 -21 c0 -5 -15 -26 -34 -47 -41
-46 -53 -68 -61 -118 -4 -28 -10 -37 -21 -33 -10 4 -14 -3 -14 -28 0 -29 -5
-37 -30 -48 -39 -17 -90 -117 -94 -184 -2 -41 -8 -52 -39 -78 -20 -17 -37 -37
-37 -43 0 -7 -5 -13 -11 -13 -7 0 -8 -16 -3 -45 l6 -46 -28 6 c-16 4 -35 8
-41 11 -15 4 -17 40 -3 49 6 3 10 19 10 34 0 15 4 31 9 37 10 9 29 103 38 181
3 23 13 49 24 59 10 9 19 23 19 30 0 7 13 28 28 46 15 18 39 50 52 71 14 20
32 39 40 42 8 3 26 15 40 27 42 38 88 68 103 68 8 0 20 7 27 15 14 17 20 19
20 7z m-439 -788 c23 -21 25 -62 3 -71 -20 -7 -94 26 -94 44 0 7 -4 13 -10 13
-14 0 -12 27 3 34 21 9 79 -2 98 -20z"/>
</g>
</svg>
